<svg width="220" height="64" viewBox="0 0 220 64" fill="none" xmlns="http://www.w3.org/2000/svg" role="img" aria-labelledby="title desc">
  <title id="title">StayFlow</title>
  <desc id="desc">Logo de StayFlow con simbolo de flujo operativo y vivienda</desc>
  <rect width="64" height="64" rx="14" fill="#DFF5EB"/>
  <path d="M18 31.2L32 19L46 31.2" stroke="#10251D" stroke-width="4" stroke-linecap="round" stroke-linejoin="round"/>
  <path d="M23.5 29.5V45H40.5V29.5" stroke="#10251D" stroke-width="4" stroke-linecap="round" stroke-linejoin="round"/>
  <path d="M22 43C29.5 48.8 42 47.7 47 39.5C51.1 32.7 45.6 25.2 37.5 28.4C30.7 31.1 30.8 39.6 23 38.4C16.6 37.4 14.9 30.3 20 25.6" stroke="#167C5B" stroke-width="4" stroke-linecap="round"/>
  <path d="M49 18L52 21L58 14" stroke="#167C5B" stroke-width="4" stroke-linecap="round" stroke-linejoin="round"/>
  <path d="M84.5 24.6C84.5 21.8 86.8 19.8 90.5 19.8C93.2 19.8 95.3 20.7 97.3 22.2L100 18.5C97.6 16.5 94.6 15.3 90.7 15.3C84.2 15.3 79.7 19.1 79.7 24.9C79.7 31 83.7 32.6 90.3 34.2C95.5 35.5 96.6 36.6 96.6 39C96.6 41.8 94.1 43.7 90.1 43.7C86.5 43.7 83.8 42.4 81.2 40.1L78.2 43.7C81.1 46.6 85.3 48.2 90 48.2C96.9 48.2 101.4 44.6 101.4 38.6C101.4 33.2 97.9 30.9 91.2 29.3C85.6 27.9 84.5 26.9 84.5 24.6Z" fill="#10251D"/>
  <path d="M111 47.8H115.8V27.1H122.7V22.9H115.8V21.5C115.8 18.7 117.1 17.4 119.5 17.4C120.7 17.4 121.7 17.6 122.8 18V13.8C121.5 13.4 120.3 13.2 118.5 13.2C116.2 13.2 114.4 13.9 113.1 15.2C111.7 16.6 111 18.6 111 21.2V22.8H107.8V27.1H111V47.8Z" fill="#10251D"/>
  <path d="M127.8 47.8H132.6V14.2H127.8V47.8Z" fill="#10251D"/>
  <path d="M151.3 48.3C158.9 48.3 164.5 42.4 164.5 35.3C164.5 28.1 158.9 22.4 151.4 22.4C143.9 22.4 138.2 28.2 138.2 35.4C138.2 42.6 143.8 48.3 151.3 48.3ZM151.4 44.1C146.5 44.1 143 40.2 143 35.3C143 30.5 146.2 26.6 151.3 26.6C156.2 26.6 159.7 30.5 159.7 35.4C159.7 40.2 156.4 44.1 151.4 44.1Z" fill="#10251D"/>
  <path d="M174.9 48H179.1L185.1 30.2L191.1 48H195.3L204.3 22.9H199.4L193.1 41.1L187.1 22.8H183L177 41.1L170.8 22.9H165.7L174.9 48Z" fill="#167C5B"/>
</svg>
